<svg width="522" height="522" viewBox="0 0 522 522" fill="none" xmlns="http://www.w3.org/2000/svg">
<rect width="522" height="522" rx="40" fill="#2B00FF"/>
<path d="M381.942 300.673C385.289 303.557 385.674 308.619 382.674 311.863C363.699 332.377 341.111 349.228 316.04 361.571C312.076 363.522 307.334 361.711 305.523 357.681L284.058 309.921C282.247 305.891 284.056 301.174 287.99 299.163C303.972 290.994 318.462 280.185 330.846 267.193C333.895 263.995 338.932 263.605 342.279 266.489L381.942 300.673ZM227.233 257.724C231.247 254.599 237.173 255.604 239.775 259.975C248.529 274.678 256.532 285.111 271.695 296.65C275.855 299.816 276.271 306.033 272.199 309.313C245.237 331.036 213.639 346.358 179.789 354.059C145.183 361.932 109.252 361.605 74.8584 353.153C70.5678 352.098 68.1006 347.661 69.305 343.41L83.5783 293.032C84.7827 288.781 89.2017 286.332 93.5077 287.322C116.871 292.692 141.181 292.734 164.623 287.4C187.454 282.206 208.822 272.059 227.233 257.724ZM403.39 163.09C409.611 158.499 418.427 158.991 423.545 164.786L450.264 195.037C455.382 200.832 454.858 209.718 448.76 214.471C413.052 242.302 369.764 258.933 324.388 262.068C279.012 265.203 233.847 254.682 194.651 232.026C187.957 228.157 186.217 219.428 190.489 212.984L212.794 179.347C217.067 172.903 225.731 171.203 232.525 174.895C259.094 189.332 289.317 195.968 319.676 193.87C350.035 191.773 379.058 181.044 403.39 163.09Z" fill="white"/>
</svg>
