<?xml version="1.0" encoding="UTF-8"?>
<svg version="1.1" xmlns="http://www.w3.org/2000/svg" width="200" height="200">
<path d="M0 0 C66 0 132 0 200 0 C200 66 200 132 200 200 C134 200 68 200 0 200 C0 134 0 68 0 0 Z " fill="#FDFDFD" transform="translate(0,0)"/>
<path d="M0 0 C13.2 0 26.4 0 40 0 C44.19201389 16.76805556 44.19201389 16.76805556 45.37890625 25.296875 C46.17472465 30.04175449 47.27288395 34.69325684 48.375 39.375 C50.43261728 48.13383747 52.07846674 56.90509789 53.54150391 65.78100586 C54.7273802 72.82661305 56.3212291 79.65465208 58.265625 86.52734375 C59.10710167 90.50645418 59.12467 93.94377234 59 98 C59.66 98 60.32 98 61 98 C61.13728516 96.98873047 61.13728516 96.98873047 61.27734375 95.95703125 C62.18442417 92.24535625 63.81290206 89.05622872 65.5625 85.6875 C66.21000406 84.42076128 66.85711615 83.15382216 67.50390625 81.88671875 C68.06936157 80.78348267 68.06936157 80.78348267 68.64624023 79.65795898 C73.0901737 70.9327825 77.43692323 62.15855717 81.75102234 53.36860657 C83.48974675 49.82904367 85.23623662 46.29334026 86.98364258 42.75805664 C87.88195011 40.93586051 88.77671596 39.11191479 89.66821289 37.28637695 C90.97396909 34.6146207 92.29226912 31.94939528 93.61328125 29.28515625 C94.01017654 28.46555923 94.40707184 27.64596222 94.81599426 26.80152893 C95.19036118 26.05241745 95.56472809 25.30330597 95.95043945 24.53149414 C96.27494583 23.87137833 96.59945221 23.21126251 96.93379211 22.53114319 C98 21 98 21 101 20 C101.23895996 20.50821289 101.47791992 21.01642578 101.72412109 21.54003906 C108.3841737 35.66592076 115.30044936 49.65136415 122.30847168 63.60668945 C128.02767818 74.99994301 133.6513529 86.42690395 139 98 C141.29173968 88.55620078 143.16922186 79.07275938 144.93249512 69.51937866 C147.22378347 57.12129637 149.61229037 44.76142805 152.36010742 32.45507812 C153.83252964 25.8505131 155.13119435 19.23075548 156.32421875 12.5703125 C157.12093592 8.36106689 158.0706737 4.18196837 159 0 C172.2 0 185.4 0 199 0 C196.75030084 13.49819495 196.75030084 13.49819495 195.4140625 20.125 C195.27232101 20.83074158 195.13057953 21.53648315 194.98454285 22.26361084 C194.68593219 23.74911793 194.38644122 25.23444832 194.08609009 26.71960449 C193.61489446 29.04997858 193.14637572 31.38087798 192.6784668 33.71191406 C191.39193773 40.11700071 190.09955843 46.5208474 188.79296875 52.921875 C188.46566863 54.53115302 188.13881174 56.14052128 187.8125 57.75 C187.6578125 58.51223877 187.503125 59.27447754 187.34375 60.05981445 C186.33280771 65.12046629 185.45383959 70.19546459 184.6081543 75.28613281 C182.90222521 85.53032752 180.72901633 95.55524405 178.22021484 105.63208008 C176.01509712 114.61747862 174.35475993 123.64620067 172.859375 132.7734375 C171.96828944 138.19285787 170.98247281 143.59639955 170 149 C154.82 149 139.64 149 124 149 C122.02 144.38 120.04 139.76 118 135 C116.69542197 132.3093078 115.37643184 129.65165546 114 127 C110.690791 120.56143032 107.55165526 114.15912309 104.9453125 107.40234375 C103.427135 103.5441654 101.71397703 99.77439624 100 96 C98.29803631 98.55294554 96.92706917 101.01235968 95.5625 103.75 C95.15128906 104.56984375 94.74007812 105.3896875 94.31640625 106.234375 C93.10614951 108.77699153 91.98904824 111.3461707 90.89038086 113.93847656 C88.57448302 119.30053891 86.09946884 124.59410348 83.671875 129.90625 C80.93879541 135.89826917 80.93879541 135.89826917 78.3125 141.9375 C77.28821251 144.32750415 76.16286583 146.67426833 75 149 C61.8 149 48.6 149 35 149 C40.54917444 135.68198134 40.54917444 135.68198134 43.625 130.1875 C49.21228837 120.02035348 54.03796688 109.48229496 59 99 C45.8 99 32.6 99 19 99 C18.2575 94.7925 17.515 90.585 16.75 86.25 C14.78840536 75.20871197 12.71127064 64.19936673 10.4519043 53.21533203 C9.96061395 50.80692109 9.48430838 48.39575394 9.0078125 45.984375 C8.09898789 41.4301588 7.09388215 36.90273178 6.0625 32.375 C3.64913909 21.64329429 1.55615774 10.8931042 0 0 Z " fill="#1F1F1D" transform="translate(0,25)"/>
<path d="M0 0 C13.2 0 26.4 0 40 0 C37.75030084 13.49819495 37.75030084 13.49819495 36.4140625 20.125 C36.27232101 20.83074158 36.13057953 21.53648315 35.98454285 22.26361084 C35.68593219 23.74911793 35.38644122 25.23444832 35.08609009 26.71960449 C34.61489446 29.04997858 34.14637572 31.38087798 33.6784668 33.71191406 C32.39193773 40.11700071 31.09955843 46.5208474 29.79296875 52.921875 C29.46566863 54.53115302 29.13881174 56.14052128 28.8125 57.75 C28.58046875 58.89335815 28.58046875 58.89335815 28.34375 60.05981445 C27.33280771 65.12046629 26.45383959 70.19546459 25.6081543 75.28613281 C23.90222521 85.53032752 21.72901633 95.55524405 19.22021484 105.63208008 C17.01509712 114.61747862 15.35475993 123.64620067 13.859375 132.7734375 C12.96828944 138.19285787 11.98247281 143.59639955 11 149 C-2.2 149 -15.4 149 -29 149 C-29 142 -29 142 -28 141 C-27.83768684 139.56623374 -27.72143911 138.12719814 -27.625 136.6875 C-27.17064777 131.56504504 -26.01387884 126.80828206 -24.6953125 121.84765625 C-24.07817529 119.32016733 -23.66139444 116.89466923 -23.375 114.3125 C-23 111 -23 111 -22 110 C-21.53653881 108.05221041 -21.1332267 106.09015085 -20.75 104.125 C-20.62286621 103.47716553 -20.49573242 102.82933105 -20.36474609 102.16186523 C-19.28721272 96.61802504 -18.27440667 91.0623714 -17.2565918 85.50732422 C-14.71119879 71.62425683 -11.94358994 57.80374567 -9 44 C-8.29012391 40.66699225 -7.58138384 37.33374972 -6.875 34 C-6.71265869 33.23445801 -6.55031738 32.46891602 -6.38305664 31.68017578 C-5.05642621 25.375115 -3.85991516 19.05059071 -2.7109375 12.7109375 C-1.89578985 8.4560459 -0.93980144 4.22910647 0 0 Z " fill="#011FF4" transform="translate(159,25)"/>
<path d="M0 0 C0.33 0 0.66 0 1 0 C1.34175345 6.06295936 0.94326488 10.8342612 -1.20703125 16.5078125 C-2.4920191 20.54634573 -2.93502359 24.69318401 -3.47265625 28.88671875 C-4.01390802 32.08210881 -4.97684248 34.93052743 -6 38 C-6.26633864 39.78396635 -6.47922931 41.57716154 -6.625 43.375 C-6.69976562 44.24898437 -6.77453125 45.12296875 -6.8515625 46.0234375 C-6.90054688 46.67570312 -6.94953125 47.32796875 -7 48 C-7.66 48 -8.32 48 -9 48 C-9 49.65 -9 51.3 -9 53 C3.54 53 16.08 53 29 53 C29 53.33 29 53.66 29 54 C16.13 54 3.26 54 -10 54 C-10 47 -10 47 -9 46 C-8.83768684 44.56623374 -8.72143911 43.12719814 -8.625 41.6875 C-8.17064777 36.56504504 -7.01387884 31.80828206 -5.6953125 26.84765625 C-5.07817529 24.32016733 -4.66139444 21.89466923 -4.375 19.3125 C-4 16 -4 16 -3 15 C-2.4380482 12.48140772 -1.92023227 9.97126697 -1.4375 7.4375 C-1.29892578 6.72658203 -1.16035156 6.01566406 -1.01757812 5.28320312 C-0.67494946 3.52280068 -0.33703447 1.76148203 0 0 Z " fill="#0B21BE" transform="translate(140,120)"/>
<path d="M0 0 C13.2 0 26.4 0 40 0 C39.67 1.98 39.34 3.96 39 6 C38.505 4.02 38.505 4.02 38 2 C26.12 2 14.24 2 2 2 C2 2.66 2 3.32 2 4 C1.34 4 0.68 4 0 4 C0 2.68 0 1.36 0 0 Z " fill="#1025C2" transform="translate(159,25)"/>
<path d="M0 0 C0.66 0 1.32 0 2 0 C1.5560169 9.67883151 -0.49697333 19.0238669 -2.47607422 28.47705078 C-3.34190674 32.64644186 -4.17063657 36.82322591 -5 41 C-5.33 41 -5.66 41 -6 41 C-6.02687279 39.18757948 -6.04633715 37.37504767 -6.0625 35.5625 C-6.07410156 34.55316406 -6.08570313 33.54382813 -6.09765625 32.50390625 C-6 30 -6 30 -5 29 C-4.83957845 27.33636912 -4.72232982 25.66851122 -4.625 24 C-4.25420624 19.37105849 -3.30467446 15.54565841 -1.69921875 11.21484375 C-0.53415461 7.5243892 -0.30538171 3.84780958 0 0 Z " fill="#172EDB" transform="translate(189,61)"/>
<path d="M0 0 C0.33 0 0.66 0 1 0 C1.22127098 2.29045368 1.4266504 4.58244764 1.625 6.875 C1.74101562 8.15117188 1.85703125 9.42734375 1.9765625 10.7421875 C1.98429688 11.81726563 1.99203125 12.89234375 2 14 C1.34 14.66 0.68 15.32 0 16 C-1.51238974 21.07095383 -2.27349616 25.83828368 -2.55859375 31.1171875 C-3 33 -3 33 -6 35 C-5.42972979 28.38486555 -4.20391062 22.07699195 -2.765625 15.59765625 C-1.6651341 10.42647199 -0.81310833 5.22302527 0 0 Z " fill="#1A30D8" transform="translate(156,38)"/>
<path d="M0 0 C1.1466654 3.66609922 0.57866501 6.0082475 -0.45703125 9.69921875 C-1.25992884 13.10142509 -1.49357871 16.5162052 -1.75390625 19.99609375 C-2 22 -2 22 -3 23 C-3.36760731 25.32817964 -3.70241581 27.6618385 -4 30 C-4.33 30 -4.66 30 -5 30 C-5.09765625 23.84765625 -5.09765625 23.84765625 -5 22 C-4.67 21.67 -4.34 21.34 -4 21 C-3.83995382 18.98163988 -3.7225184 16.9598458 -3.625 14.9375 C-3.24982524 9.35293143 -2.29192252 5.08208907 0 0 Z " fill="#111D51" transform="translate(134,144)"/>
<path d="M0 0 C0.66 0 1.32 0 2 0 C1.85966889 1.97956441 1.7125877 3.95865141 1.5625 5.9375 C1.48128906 7.03964844 1.40007812 8.14179688 1.31640625 9.27734375 C1 12 1 12 0 13 C-0.23075082 14.34747084 -0.41153063 15.70377565 -0.5625 17.0625 C-0.706875 18.361875 -0.85125 19.66125 -1 21 C-1.33 21 -1.66 21 -2 21 C-2 17.04 -2 13.08 -2 9 C-1.34 9 -0.68 9 0 9 C0 6.03 0 3.06 0 0 Z " fill="#161C4E" transform="translate(137,123)"/>
<path d="M0 0 C0.33 0 0.66 0 1 0 C1.02686553 1.97909398 1.04633375 3.95828971 1.0625 5.9375 C1.07410156 7.03964844 1.08570313 8.14179687 1.09765625 9.27734375 C1 12 1 12 0 13 C-0.2165625 14.7325 -0.2165625 14.7325 -0.4375 16.5 C-0.623125 17.655 -0.80875 18.81 -1 20 C-1.66 20.33 -2.32 20.66 -3 21 C-2.68981396 18.4372008 -2.37693109 15.8747789 -2.0625 13.3125 C-1.97548828 12.59126953 -1.88847656 11.87003906 -1.79882812 11.12695312 C-1.33686195 7.37989416 -0.80832321 3.69207089 0 0 Z " fill="#BBC9FC" transform="translate(191,61)"/>
<path d="M0 0 C0.33 0 0.66 0 1 0 C1.34855655 7.62951555 1.0017506 13.92444501 -2 21 C-2.91145054 18.02977779 -3.01801972 15.93514414 -2.44140625 12.890625 C-2.30283203 12.13652344 -2.16425781 11.38242188 -2.02148438 10.60546875 C-1.87001953 9.82816406 -1.71855469 9.05085938 -1.5625 8.25 C-1.41490234 7.45722656 -1.26730469 6.66445312 -1.11523438 5.84765625 C-0.75096034 3.89702754 -0.37647488 1.9483107 0 0 Z " fill="#1831DB" transform="translate(144,99)"/>
<path d="M0 0 C0.33 0 0.66 0 1 0 C1.33 4.62 1.66 9.24 2 14 C1.01 14.66 0.02 15.32 -1 16 C-1.02712153 14.083412 -1.04645097 12.1667127 -1.0625 10.25 C-1.07410156 9.18265625 -1.08570313 8.1153125 -1.09765625 7.015625 C-1.01510087 4.46631499 -0.74617558 2.42066409 0 0 Z " fill="#213DE6" transform="translate(156,38)"/>
<path d="M0 0 C0.33 0 0.66 0 1 0 C1.5321441 2.08047297 2.05031786 4.16452293 2.5625 6.25 C2.85253906 7.41015625 3.14257812 8.5703125 3.44140625 9.765625 C3.95179964 12.72090983 4.02996165 14.24434101 3 17 C-0.03901852 11.17521449 -0.3540919 6.51791392 0 0 Z " fill="#C0C0BE" transform="translate(0,27)"/>
<path d="M0 0 C0.33 0 0.66 0 1 0 C1.33266291 6.20970773 0.45029331 10.28264895 -2 16 C-3.3805087 12.23331402 -2.59568159 9.55210827 -1.5625 5.75 C-1.27503906 4.67234375 -0.98757812 3.5946875 -0.69140625 2.484375 C-0.46324219 1.66453125 -0.23507813 0.8446875 0 0 Z " fill="#C0CDFC" transform="translate(199,25)"/>
<path d="M0 0 C0.33 0 0.66 0 1 0 C1 1.98 1 3.96 1 6 C-0.98 6.99 -0.98 6.99 -3 8 C-1.125 2.25 -1.125 2.25 0 0 Z " fill="#4C4C4A" transform="translate(73,96)"/>
</svg>
