<svg width="522" height="522" viewBox="0 0 522 522" fill="none" xmlns="http://www.w3.org/2000/svg">
<rect width="522" height="522" rx="40" fill="white"/>
<path d="M381.943 300.673C385.29 303.557 385.675 308.619 382.675 311.863C363.699 332.378 341.111 349.228 316.04 361.571C312.076 363.522 307.334 361.711 305.522 357.681L284.058 309.921C282.247 305.891 284.056 301.174 287.99 299.163C303.972 290.994 318.462 280.185 330.846 267.193C333.895 263.995 338.932 263.605 342.279 266.489L381.943 300.673ZM227.233 257.725C231.247 254.6 237.173 255.605 239.775 259.976C248.529 274.678 256.532 285.111 271.695 296.65C275.855 299.816 276.27 306.033 272.199 309.313C245.236 331.036 213.639 346.358 179.789 354.059C145.183 361.932 109.253 361.605 74.8591 353.153C70.5685 352.098 68.1013 347.661 69.3056 343.41L83.5781 293.032C84.7825 288.781 89.2015 286.332 93.5076 287.322C116.871 292.692 141.182 292.734 164.624 287.4C187.455 282.206 208.822 272.06 227.233 257.725ZM403.391 163.09C409.612 158.499 418.426 158.991 423.545 164.786L450.264 195.038C455.382 200.833 454.859 209.718 448.761 214.471C413.053 242.302 369.764 258.933 324.388 262.068C279.012 265.203 233.848 254.682 194.651 232.026C187.957 228.157 186.217 219.428 190.49 212.984L212.795 179.347C217.068 172.903 225.731 171.203 232.524 174.895C259.094 189.332 289.317 195.967 319.676 193.87C350.034 191.773 379.059 181.044 403.391 163.09Z" fill="#2B00FF"/>
</svg>
